<svg xmlns="http://www.w3.org/2000/svg" width="512" height="512"><rect id="backgroundrect" width="100%" height="100%" x="0" y="0" fill="none" stroke="none"/><title>Videocam</title><g class="currentLayer" style=""><title>Layer 1</title><path d="M374.79 308.78L457.5 367a16 16 0 0022.5-14.62V159.62A16 16 0 00457.5 145l-82.71 58.22A16 16 0 00368 216.3v79.4a16 16 0 006.79 13.08z" fill="none" stroke="#3880ff" stroke-linecap="round" stroke-linejoin="round" stroke-width="32" id="svg_1" class="selected" stroke-opacity="1"/><path d="M268 384H84a52.15 52.15 0 01-52-52V180a52.15 52.15 0 0152-52h184.48A51.68 51.68 0 01320 179.52V332a52.15 52.15 0 01-52 52z" fill="none" stroke="#3880ff" stroke-miterlimit="10" stroke-width="32" id="svg_2" class="selected" stroke-opacity="1"/></g></svg>